<svg xmlns="http://www.w3.org/2000/svg" viewBox="0 0 300 30.94"><path d="M260.88 8l-7.48 22.9h-1.23l-8.75-27.12c-.3-1-.68-1.23-1.7-1.44l-1-.22V.93h12.23v1.19l-2.5.22c-1.23.13-1.28.59-1 1.44L254.93 22l5-16.82-.43-1.41c-.34-1-.72-1.23-1.83-1.44l-1.06-.22V.93h12.45v1.19l-2.51.22c-1.23.13-1.27.59-1 1.44l5.4 18.1L275.88 4c.21-.76.34-1.19-1.11-1.48l-1.32-.35V.93h7.44v1.19l-.89.3c-1.45.51-1.62.55-2 1.7l-8.58 26.78h-1.27L260.88 8m-22.09 22.34H217v-1.15l1.83-.33c1.14-.22 1.35-.22 1.35-.94V3.44c0-.76-.21-.76-1.35-1L217 2.12V.93h21.07l1.57 6.55h-1.1l-1.91-3c-.81-1.27-1.11-1.61-2.68-1.69l-7.9-.56v12.26l7-.25c1.15 0 1.44 0 1.82-1.28l.81-2.93h1.19v10.28l-1.14.09-.86-2.93c-.42-1.32-.67-1.36-1.95-1.4l-6.88-.22v13.26l8.07-.55a3.29 3.29 0 003.19-1.91l2-3.91h1.15l-1.66 7.6m-43.62 0h-9.6v-1.15l2-.33c1.19-.22 1.36-.22 1.36-.94l.55-23.75-.09-.17a4.42 4.42 0 00-3.82-1.75V.93h8.49l15.68 20.19-.55-17.68c0-.76-.17-.85-1.27-1l-2.51-.35V.93H215v1.19l-2 .3c-1.19.17-1.35.26-1.35 1l-.56 26.9h-1.27L190.92 6l.55 21.93c0 .72.13.77 1.24.94l2.46.33v1.15m-40.65-.01h-9.6v-1.15l2-.33c1.19-.22 1.36-.22 1.36-.94l.55-23.75-.08-.17a4.45 4.45 0 00-3.83-1.75V.93h8.5l15.68 20.19-.56-17.68c0-.76-.17-.85-1.27-1l-2.51-.35V.93h9.56v1.19l-1.95.3c-1.19.17-1.36.26-1.36 1l-.55 26.9h-1.28L150.27 6l.56 21.93c0 .72.12.77 1.23.94l2.46.33v1.15M137.58 3.44c0-.76-.17-.85-1.23-1L133 2.12V.93h9.73v1.19l-1.7.3c-1.19.22-1.32.26-1.36 1l-.47 16.79c-.08 7-3.6 10.71-10.24 10.71-6.45 0-11.59-3.4-11.59-10.71V3.44c0-.76-.22-.8-1.36-1l-1.7-.3V.93h13.47v1.19l-3.36.35c-1.06.12-1.23.21-1.23 1v17.05c0 6.51 3.57 8.21 7 8.21 4.37 0 7.43-2.81 7.43-8.33l-.08-17M104.78 0c3.83 0 6.68 1.19 7.31 1.74l.68 5.91h-1.19c-1.19-3.65-3.14-6.16-6.84-6.16-3.35 0-5.06 2.12-5.06 4.63 0 7 13.82 6.33 13.82 16.15 0 4.71-3.28 8.67-11.18 8.67a20.39 20.39 0 01-7.56-1.32l-1.11-7h1.15c1.44 4 3.57 6.8 7.86 6.8 3.31 0 5.48-1.78 5.48-5 0-7.81-13.34-6.71-13.34-16.23 0-5.06 3.87-8.2 10-8.2M80.66 30.34H58.87v-1.15l1.82-.33c1.15-.22 1.36-.22 1.36-.94V3.44c0-.76-.21-.76-1.36-1l-1.82-.35V.93h21.07l1.57 6.55h-1.1l-1.91-3c-.81-1.27-1.11-1.61-2.68-1.69l-7.9-.56v12.26l7-.25c1.14 0 1.44 0 1.83-1.28l.8-2.93h1.19v10.28l-1.15.09-.84-2.93c-.43-1.32-.69-1.36-2-1.4l-6.88-.22v13.26l8.13-.55a3.29 3.29 0 003.19-1.91l2-3.91h1.15l-1.66 7.6m-40.46 0H27.05v-1.15l1.83-.33c1.19-.22 1.36-.22 1.36-.94V3.44c0-.76-.17-.76-1.36-1l-1.83-.35V.93h13.17v1.19l-2.92.35c-1.07.12-1.24.21-1.24 1v10.89h11.73V3.44c0-.76-.13-.85-1.23-1l-2.89-.35V.93H56.8v1.19l-1.8.35c-1.19.17-1.36.21-1.36 1v24.45c0 .72.17.72 1.36.94l1.83.33v1.15H43.67v-1.15l2.89-.33c1.1-.17 1.23-.22 1.23-.94V15.81H36.06v12.11c0 .72.17.77 1.24.94l2.92.33v1.15m-20.51 0H6.25v-1.1l2.33-.34c1.19-.17 1.4-.21 1.4-.94V2.25l-4.16.17c-1.57.05-2 .55-2.68 1.87L1.23 7.57H0L1.15.93h23.49l1.19 6.64h-1.19l-1.91-3.28c-.64-1.4-1.1-1.82-2.68-1.87l-4.2-.17V28c0 .73.17.81 1.27.94l2.59.34v1.1M291.29 0c3.82 0 6.67 1.19 7.31 1.74l.68 5.91h-1.2c-1.18-3.65-3.14-6.16-6.83-6.16-3.36 0-5.06 2.12-5.06 4.63 0 7 13.81 6.33 13.81 16.15 0 4.71-3.27 8.67-11.18 8.67a20.39 20.39 0 01-7.56-1.32l-1.1-7h1.14c1.45 4 3.57 6.8 7.86 6.8 3.32 0 5.48-1.78 5.48-5 0-7.82-13.34-6.72-13.34-16.24 0-5.06 3.87-8.2 10-8.2" fill="#010101" data-name="Layer 2"/></svg>